# Blender v2.81 (sub 16) OBJ File: ''
# www.blender.org
mtllib map2d.mtl
o Plane
v -20.000000 0.000000 20.000000
v 20.000000 0.000000 20.000000
v -20.000000 0.000000 -20.000000
v 20.000000 0.000000 -20.000000
vn 0.0000 1.0000 0.0000
usemtl None
s off
f 1//1 2//1 4//1
f 3//1 4//1 1//1
o Plane.001
v 8.000000 0.010000 -8.000000
v 12.000000 0.010000 -8.000000
v 8.000000 0.010000 -12.000000
v 12.000000 0.010000 -12.000000
vn 0.0000 1.0000 0.0000
usemtl None
s off
f 5//2 6//2 8//2
f 5//2 8//2 7//2
o Plane.002
v -12.000000 0.010000 -8.000000
v -8.000000 0.010000 -8.000000
v -12.000000 0.010000 -12.000000
v -8.000000 0.010000 -12.000000
vn 0.0000 1.0000 0.0000
usemtl None
s off
f 9//3 10//3 12//3
f 9//3 12//3 11//3
o Plane.003
v -12.000000 0.010000 12.000000
v -8.000000 0.010000 12.000000
v -12.000000 0.010000 8.000000
v -8.000000 0.010000 8.000000
vn 0.0000 1.0000 0.0000
usemtl None
s off
f 13//4 14//4 16//4
f 13//4 16//4 15//4
o Plane.004
v 8.000000 0.010000 12.000000
v 12.000000 0.010000 12.000000
v 8.000000 0.010000 8.000000
v 12.000000 0.010000 8.000000
vn 0.0000 1.0000 0.0000
usemtl None
s off
f 17//5 18//5 20//5
f 17//5 20//5 19//5
