# Blender v2.81 (sub 16) OBJ File: 'mapv1.blend'
# www.blender.org
mtllib mapv1.mtl
o Plane
v -20.000000 0.000000 20.000000
v 20.000000 0.000000 20.000000
v -20.000000 0.000000 -20.000000
v 20.000000 0.000000 -20.000000
vt 0.333812 0.000000
vt 0.000000 0.993811
vt 0.000000 0.000000
vt 0.333812 0.993811
vn 0.0000 1.0000 0.0000
usemtl texture
s off
f 2/1/1 3/2/1 1/3/1
f 2/1/1 4/4/1 3/2/1
o Wall2_Plane.008
v -20.000000 0.000000 -20.000000
v -20.000000 4.000000 -20.000000
v 20.000000 0.000000 -20.000000
v 20.000000 4.000000 -20.000000
v -19.999998 0.000000 20.000000
v -19.999998 4.000000 20.000000
v 19.999998 0.000000 20.000000
v 19.999998 4.000000 20.000000
v 20.000000 0.000000 20.000000
v 20.000000 4.000000 20.000000
v 19.999998 0.000000 -20.000002
v 19.999998 4.000000 -20.000002
v -19.999998 0.000000 20.000000
v -19.999998 4.000000 20.000000
v -20.000000 0.000000 -20.000002
v -20.000000 4.000000 -20.000002
vt 1.000190 0.000000
vt 0.666884 0.236770
vt 0.666884 0.000000
vt 1.000190 0.000000
vt 0.666884 0.236770
vt 0.666884 0.000000
vt 1.000190 0.000000
vt 0.666884 0.236770
vt 0.666884 0.000000
vt 1.000190 0.000000
vt 0.666884 0.236770
vt 0.666884 0.000000
vt 1.000190 0.236770
vt 1.000190 0.236770
vt 1.000190 0.236770
vt 1.000190 0.236770
vn 0.0000 0.0000 1.0000
vn 1.0000 0.0000 -0.0000
usemtl texture
s off
f 7/5/2 6/6/2 5/7/2
f 11/8/2 10/9/2 9/10/2
f 15/11/3 14/12/3 13/13/3
f 19/14/3 18/15/3 17/16/3
f 7/5/2 8/17/2 6/6/2
f 11/8/2 12/18/2 10/9/2
f 15/11/3 16/19/3 14/12/3
f 19/14/3 20/20/3 18/15/3
o House_Cube.001
v 8.000000 0.000000 -8.000000
v 8.000000 4.000000 -8.000000
v 8.000000 0.000000 -12.000000
v 8.000000 4.000000 -12.000000
v 12.000000 0.000000 -8.000000
v 12.000000 4.000000 -8.000000
v 12.000000 0.000000 -12.000000
v 12.000000 4.000000 -12.000000
v 9.964715 5.979262 -9.964715
v 9.964715 5.979262 -10.035285
v 10.035285 5.979262 -10.035285
v 10.035285 5.979262 -9.964715
vt 0.998998 0.009390
vt 0.668916 0.988701
vt 0.668916 0.009390
vt 1.001196 0.004430
vt 0.669092 0.986358
vt 0.669092 0.004430
vt 0.999964 0.008202
vt 0.668407 0.990952
vt 0.668407 0.008202
vt 0.999972 0.002238
vt 0.667870 0.991314
vt 0.667870 0.002238
vt 0.651059 0.048788
vt 0.342650 0.357195
vt 0.342650 0.048788
vt 0.499894 0.016149
vt 0.499894 0.998077
vt 0.499894 0.998077
vt 1.002635 0.003375
vt 0.671258 0.985797
vt 0.671258 0.003375
vt 0.501266 -0.007423
vt 0.501266 0.975327
vt 0.501266 0.975327
vt 0.536758 0.001577
vt 0.536758 0.980889
vt 0.536758 0.980889
vt 0.571587 -0.009481
vt 0.571587 0.979595
vt 0.571587 0.979595
vt 0.998998 0.988701
vt 1.001196 0.986358
vt 0.999964 0.990952
vt 0.999972 0.991314
vt 0.651059 0.357195
vt 0.499894 0.016149
vt 1.002635 0.985797
vt 0.501266 -0.007423
vt 0.536758 0.001577
vt 0.571587 -0.009481
vn -1.0000 0.0000 0.0000
vn 0.0000 0.0000 -1.0000
vn 1.0000 0.0000 0.0000
vn 0.0000 0.0000 1.0000
vn 0.0000 -1.0000 0.0000
vn 0.0000 0.7045 -0.7097
vn 0.0000 1.0000 0.0000
vn 0.7097 0.7045 0.0000
vn -0.7097 0.7045 0.0000
vn 0.0000 0.7045 0.7097
usemtl texture
s off
f 22/21/4 23/22/4 21/23/4
f 24/24/5 27/25/5 23/26/5
f 28/27/6 25/28/6 27/29/6
f 26/30/7 21/31/7 25/32/7
f 27/33/8 21/34/8 23/35/8
f 24/36/9 31/37/9 28/38/9
f 30/39/10 32/40/10 31/41/10
f 28/42/11 32/43/11 26/44/11
f 22/45/12 30/46/12 24/47/12
f 26/48/13 29/49/13 22/50/13
f 22/21/4 24/51/4 23/22/4
f 24/24/5 28/52/5 27/25/5
f 28/27/6 26/53/6 25/28/6
f 26/30/7 22/54/7 21/31/7
f 27/33/8 25/55/8 21/34/8
f 24/36/9 30/56/9 31/37/9
f 30/39/10 29/57/10 32/40/10
f 28/42/11 31/58/11 32/43/11
f 22/45/12 29/59/12 30/46/12
f 26/48/13 32/60/13 29/49/13
o House.001_Cube.002
v 8.000000 0.000000 12.000000
v 8.000000 4.000000 12.000000
v 8.000000 0.000000 8.000000
v 8.000000 4.000000 8.000000
v 12.000000 0.000000 12.000000
v 12.000000 4.000000 12.000000
v 12.000000 0.000000 8.000000
v 12.000000 4.000000 8.000000
v 9.964715 5.979262 10.035285
v 9.964715 5.979262 9.964715
v 10.035285 5.979262 9.964715
v 10.035285 5.979262 10.035285
vt 0.998998 0.009390
vt 0.668916 0.988701
vt 0.668916 0.009390
vt 1.001196 0.004430
vt 0.669092 0.986358
vt 0.669092 0.004430
vt 0.999964 0.008202
vt 0.668407 0.990952
vt 0.668407 0.008202
vt 0.999972 0.002238
vt 0.667870 0.991314
vt 0.667870 0.002238
vt 0.651059 0.048788
vt 0.342650 0.357195
vt 0.342650 0.048788
vt 0.499894 0.016149
vt 0.499894 0.998077
vt 0.499894 0.998077
vt 1.002635 0.003375
vt 0.671258 0.985797
vt 0.671258 0.003375
vt 0.501266 -0.007423
vt 0.501266 0.975327
vt 0.501266 0.975327
vt 0.536758 0.001577
vt 0.536758 0.980889
vt 0.536758 0.980889
vt 0.571587 -0.009481
vt 0.571587 0.979595
vt 0.571587 0.979595
vt 0.998998 0.988701
vt 1.001196 0.986358
vt 0.999964 0.990952
vt 0.999972 0.991314
vt 0.651059 0.357195
vt 0.499894 0.016149
vt 1.002635 0.985797
vt 0.501266 -0.007423
vt 0.536758 0.001577
vt 0.571587 -0.009481
vn -1.0000 0.0000 0.0000
vn 0.0000 0.0000 -1.0000
vn 1.0000 0.0000 0.0000
vn 0.0000 0.0000 1.0000
vn 0.0000 -1.0000 0.0000
vn 0.0000 0.7045 -0.7097
vn 0.0000 1.0000 0.0000
vn 0.7097 0.7045 0.0000
vn -0.7097 0.7045 0.0000
vn 0.0000 0.7045 0.7097
usemtl texture
s off
f 34/61/14 35/62/14 33/63/14
f 36/64/15 39/65/15 35/66/15
f 40/67/16 37/68/16 39/69/16
f 38/70/17 33/71/17 37/72/17
f 39/73/18 33/74/18 35/75/18
f 36/76/19 43/77/19 40/78/19
f 42/79/20 44/80/20 43/81/20
f 40/82/21 44/83/21 38/84/21
f 34/85/22 42/86/22 36/87/22
f 38/88/23 41/89/23 34/90/23
f 34/61/14 36/91/14 35/62/14
f 36/64/15 40/92/15 39/65/15
f 40/67/16 38/93/16 37/68/16
f 38/70/17 34/94/17 33/71/17
f 39/73/18 37/95/18 33/74/18
f 36/76/19 42/96/19 43/77/19
f 42/79/20 41/97/20 44/80/20
f 40/82/21 43/98/21 44/83/21
f 34/85/22 41/99/22 42/86/22
f 38/88/23 44/100/23 41/89/23
o House.002_Cube.003
v -12.000000 0.000000 -8.000000
v -12.000000 4.000000 -8.000000
v -12.000000 0.000000 -12.000000
v -12.000000 4.000000 -12.000000
v -8.000000 0.000000 -8.000000
v -8.000000 4.000000 -8.000000
v -8.000000 0.000000 -12.000000
v -8.000000 4.000000 -12.000000
v -10.035285 5.979262 -9.964715
v -10.035285 5.979262 -10.035285
v -9.964715 5.979262 -10.035285
v -9.964715 5.979262 -9.964715
vt 0.998998 0.009390
vt 0.668916 0.988701
vt 0.668916 0.009390
vt 1.001196 0.004430
vt 0.669092 0.986358
vt 0.669092 0.004430
vt 0.999964 0.008202
vt 0.668407 0.990952
vt 0.668407 0.008202
vt 0.999972 0.002238
vt 0.667870 0.991314
vt 0.667870 0.002238
vt 0.651059 0.048788
vt 0.342650 0.357195
vt 0.342650 0.048788
vt 0.499894 0.016149
vt 0.499894 0.998077
vt 0.499894 0.998077
vt 1.002635 0.003375
vt 0.671258 0.985797
vt 0.671258 0.003375
vt 0.501266 -0.007423
vt 0.501266 0.975327
vt 0.501266 0.975327
vt 0.536758 0.001577
vt 0.536758 0.980889
vt 0.536758 0.980889
vt 0.571587 -0.009481
vt 0.571587 0.979595
vt 0.571587 0.979595
vt 0.998998 0.988701
vt 1.001196 0.986358
vt 0.999964 0.990952
vt 0.999972 0.991314
vt 0.651059 0.357195
vt 0.499894 0.016149
vt 1.002635 0.985797
vt 0.501266 -0.007423
vt 0.536758 0.001577
vt 0.571587 -0.009481
vn -1.0000 0.0000 0.0000
vn 0.0000 0.0000 -1.0000
vn 1.0000 0.0000 0.0000
vn 0.0000 0.0000 1.0000
vn 0.0000 -1.0000 0.0000
vn 0.0000 0.7045 -0.7097
vn 0.0000 1.0000 0.0000
vn 0.7097 0.7045 0.0000
vn -0.7097 0.7045 0.0000
vn 0.0000 0.7045 0.7097
usemtl texture
s off
f 46/101/24 47/102/24 45/103/24
f 48/104/25 51/105/25 47/106/25
f 52/107/26 49/108/26 51/109/26
f 50/110/27 45/111/27 49/112/27
f 51/113/28 45/114/28 47/115/28
f 48/116/29 55/117/29 52/118/29
f 54/119/30 56/120/30 55/121/30
f 52/122/31 56/123/31 50/124/31
f 46/125/32 54/126/32 48/127/32
f 50/128/33 53/129/33 46/130/33
f 46/101/24 48/131/24 47/102/24
f 48/104/25 52/132/25 51/105/25
f 52/107/26 50/133/26 49/108/26
f 50/110/27 46/134/27 45/111/27
f 51/113/28 49/135/28 45/114/28
f 48/116/29 54/136/29 55/117/29
f 54/119/30 53/137/30 56/120/30
f 52/122/31 55/138/31 56/123/31
f 46/125/32 53/139/32 54/126/32
f 50/128/33 56/140/33 53/129/33
o House.003_Cube.004
v -12.000000 0.000000 12.000000
v -12.000000 4.000000 12.000000
v -12.000000 0.000000 8.000000
v -12.000000 4.000000 8.000000
v -8.000000 0.000000 12.000000
v -8.000000 4.000000 12.000000
v -8.000000 0.000000 8.000000
v -8.000000 4.000000 8.000000
v -10.035285 5.979262 10.035285
v -10.035285 5.979262 9.964715
v -9.964715 5.979262 9.964715
v -9.964715 5.979262 10.035285
vt 0.998998 0.009390
vt 0.668916 0.988701
vt 0.668916 0.009390
vt 1.001196 0.004430
vt 0.669092 0.986358
vt 0.669092 0.004430
vt 0.999964 0.008202
vt 0.668407 0.990952
vt 0.668407 0.008202
vt 0.999972 0.002238
vt 0.667870 0.991314
vt 0.667870 0.002238
vt 0.651059 0.048788
vt 0.342650 0.357195
vt 0.342650 0.048788
vt 0.499894 0.016149
vt 0.499894 0.998077
vt 0.499894 0.998077
vt 1.002635 0.003375
vt 0.671258 0.985797
vt 0.671258 0.003375
vt 0.501266 -0.007423
vt 0.501266 0.975327
vt 0.501266 0.975327
vt 0.536758 0.001577
vt 0.536758 0.980889
vt 0.536758 0.980889
vt 0.571587 -0.009481
vt 0.571587 0.979595
vt 0.571587 0.979595
vt 0.998998 0.988701
vt 1.001196 0.986358
vt 0.999964 0.990952
vt 0.999972 0.991314
vt 0.651059 0.357195
vt 0.499894 0.016149
vt 1.002635 0.985797
vt 0.501266 -0.007423
vt 0.536758 0.001577
vt 0.571587 -0.009481
vn -1.0000 0.0000 0.0000
vn 0.0000 0.0000 -1.0000
vn 1.0000 0.0000 0.0000
vn 0.0000 0.0000 1.0000
vn 0.0000 -1.0000 0.0000
vn 0.0000 0.7045 -0.7097
vn 0.0000 1.0000 0.0000
vn 0.7097 0.7045 0.0000
vn -0.7097 0.7045 0.0000
vn 0.0000 0.7045 0.7097
usemtl texture
s off
f 58/141/34 59/142/34 57/143/34
f 60/144/35 63/145/35 59/146/35
f 64/147/36 61/148/36 63/149/36
f 62/150/37 57/151/37 61/152/37
f 63/153/38 57/154/38 59/155/38
f 60/156/39 67/157/39 64/158/39
f 66/159/40 68/160/40 67/161/40
f 64/162/41 68/163/41 62/164/41
f 58/165/42 66/166/42 60/167/42
f 62/168/43 65/169/43 58/170/43
f 58/141/34 60/171/34 59/142/34
f 60/144/35 64/172/35 63/145/35
f 64/147/36 62/173/36 61/148/36
f 62/150/37 58/174/37 57/151/37
f 63/153/38 61/175/38 57/154/38
f 60/156/39 66/176/39 67/157/39
f 66/159/40 65/177/40 68/160/40
f 64/162/41 67/178/41 68/163/41
f 58/165/42 65/179/42 66/166/42
f 62/168/43 68/180/43 65/169/43
